<svg version="1.1" viewBox="0.0 0.0 960.7217847769028 179.68766404199476" fill="none" stroke="none" stroke-linecap="square" stroke-miterlimit="10" xmlns:xlink="http://www.w3.org/1999/xlink" xmlns="http://www.w3.org/2000/svg"><clipPath id="p.0"><path d="m0 0l960.7218 0l0 179.68767l-960.7218 0l0 -179.68767z" clip-rule="nonzero"/></clipPath><g clip-path="url(#p.0)"><path fill="#000000" fill-opacity="0.0" d="m0 0l960.7218 0l0 179.68767l-960.7218 0z" fill-rule="evenodd"/><path fill="#000000" fill-opacity="0.0" d="m0 0l960.7244 0l0 179.68504l-960.7244 0z" fill-rule="evenodd"/><path fill="#6d9eeb" d="m50.041992 119.5125q0 2.046875 -1.328125 3.375q-1.3125 1.3125 -3.34375 1.3125q-2.046875 0 -3.375 -1.3125q-1.3125 -1.328125 -1.3125 -3.375l0 -84.359375q0 -2.03125 1.3125 -3.34375q1.328125 -1.328125 3.375 -1.328125l24.0 0q8.75 0 15.640625 3.90625q6.90625 3.890625 10.75 10.796875q3.84375 6.890625 3.84375 15.78125q0 8.75 -3.84375 15.59375q-3.84375 6.84375 -10.75 10.6875q-6.890625 3.828125 -15.640625 3.828125l-19.328125 0l0 28.4375zm19.328125 -37.4375q6.109375 0 10.90625 -2.6875q4.8125 -2.703125 7.5 -7.5q2.703125 -4.8125 2.703125 -10.921875q0 -6.25 -2.703125 -11.109375q-2.6875 -4.859375 -7.5 -7.609375q-4.796875 -2.765625 -10.90625 -2.765625l-19.328125 0l0 42.59375l19.328125 0zm45.471176 -18.828125q0 -2.046875 1.3125 -3.359375q1.328125 -1.328125 3.375 -1.328125q2.03125 0 3.28125 1.328125q1.265625 1.3125 1.265625 3.359375l0 56.265625q0 2.046875 -1.265625 3.375q-1.25 1.3125 -3.28125 1.3125q-2.046875 0 -3.375 -1.3125q-1.3125 -1.328125 -1.3125 -3.375l0 -56.265625zm4.671875 -30.25q2.640625 0 4.5625 1.8125q1.921875 1.796875 1.921875 4.671875q0 2.765625 -1.921875 4.6875q-1.921875 1.90625 -4.671875 1.90625q-2.765625 0 -4.625 -1.90625q-1.859375 -1.921875 -1.859375 -4.6875q0 -2.875 1.921875 -4.671875q1.921875 -1.8125 4.671875 -1.8125zm56.164337 24.96875q15.0 0 24.359375 11.515625q0.96875 1.078125 0.96875 2.515625q0 1.921875 -2.046875 3.359375q-1.078125 0.71875 -2.28125 0.71875q-1.796875 0 -3.46875 -1.796875q-3.609375 -3.953125 -7.9375 -5.9375q-4.3125 -1.984375 -9.59375 -1.984375q-6.59375 0 -11.765625 3.1875q-5.15625 3.171875 -7.984375 8.9375q-2.8125 5.765625 -2.8125 12.953125q0 7.078125 3.0 12.78125q3.0 5.703125 8.40625 8.953125q5.40625 3.234375 12.359375 3.234375q9.609375 0 15.484375 -5.15625q1.5625 -1.328125 3.234375 -1.328125q1.4375 0 2.640625 0.96875q1.6875 1.4375 1.6875 3.234375q0 1.5625 -1.203125 2.640625q-8.640625 8.03125 -21.84375 8.03125q-9.359375 0 -16.796875 -4.375q-7.4375 -4.375 -11.703125 -12.0q-4.265625 -7.625 -4.265625 -16.984375q0 -9.59375 4.078125 -17.203125q4.09375 -7.625 11.28125 -11.9375q7.203125 -4.328125 16.203125 -4.328125zm72.36368 57.0q1.921875 0 3.125 1.328125q1.203125 1.3125 1.203125 3.34375q0 1.921875 -1.453125 3.25q-1.4375 1.3125 -3.59375 1.3125l-2.515625 0q-6.359375 0 -11.40625 -3.0625q-5.03125 -3.0625 -7.859375 -8.28125q-2.8125 -5.21875 -2.8125 -11.8125l0 -32.046875l-7.8125 0q-1.90625 0 -3.046875 -1.140625q-1.140625 -1.140625 -1.140625 -2.8125q0 -1.796875 1.140625 -2.9375q1.140625 -1.140625 3.046875 -1.140625l7.8125 0l0 -18.609375q0 -2.03125 1.25 -3.34375q1.265625 -1.328125 3.296875 -1.328125q2.046875 0 3.359375 1.328125q1.328125 1.3125 1.328125 3.34375l0 18.609375l13.5625 0q1.921875 0 3.0625 1.140625q1.140625 1.140625 1.140625 2.9375q0 1.671875 -1.140625 2.8125q-1.140625 1.140625 -3.0625 1.140625l-13.5625 0l0 32.046875q0 6.109375 3.59375 10.015625q3.609375 3.90625 9.25 3.90625l3.234375 0zm74.28682 -56.40625q2.03125 0 3.34375 1.265625q1.328125 1.25 1.328125 3.296875l0 56.390625q0 2.046875 -1.328125 3.375q-1.3125 1.3125 -3.34375 1.3125q-2.046875 0 -3.3125 -1.3125q-1.25 -1.328125 -1.25 -3.375l0 -4.078125q-3.96875 4.453125 -9.609375 6.96875q-5.640625 2.515625 -12.234375 2.515625q-8.515625 0 -15.296875 -3.59375q-6.78125 -3.609375 -10.625 -10.5q-3.84375 -6.90625 -3.84375 -16.5l0 -31.203125q0 -1.921875 1.3125 -3.234375q1.328125 -1.328125 3.25 -1.328125q2.046875 0 3.359375 1.328125q1.328125 1.3125 1.328125 3.234375l0 31.203125q0 10.671875 5.9375 16.25q5.9375 5.578125 15.53125 5.578125q5.890625 0 10.625 -2.265625q4.75 -2.28125 7.5 -6.296875q2.765625 -4.03125 2.765625 -8.953125l0 -35.515625q0 -2.046875 1.25 -3.296875q1.265625 -1.265625 3.3125 -1.265625zm55.911804 -0.71875q5.046875 0 7.984375 1.328125q2.9375 1.3125 2.9375 3.71875q0 0.71875 -0.125 1.078125q-0.46875 1.671875 -1.5 2.28125q-1.015625 0.59375 -2.8125 0.59375q-1.078125 0 -3.71875 -0.234375q-0.96875 -0.125 -2.890625 -0.125q-9.0 0 -14.703125 4.796875q-5.6875 4.796875 -5.6875 12.484375l0 35.875q0 2.15625 -1.203125 3.359375q-1.203125 1.203125 -3.359375 1.203125q-2.15625 0 -3.359375 -1.203125q-1.203125 -1.203125 -1.203125 -3.359375l0 -56.515625q0 -2.15625 1.203125 -3.359375q1.203125 -1.203125 3.359375 -1.203125q2.15625 0 3.359375 1.203125q1.203125 1.203125 1.203125 3.359375l0 5.28125q3.484375 -5.046875 8.875 -7.796875q5.40625 -2.765625 11.640625 -2.765625zm53.288086 0.125q8.875 0 15.703125 4.140625q6.84375 4.140625 10.625 11.46875q3.78125 7.3125 3.78125 16.671875q0 1.90625 -1.203125 3.046875q-1.1875 1.140625 -3.109375 1.140625l-48.484375 0q0.96875 9.84375 7.6875 15.96875q6.71875 6.109375 16.796875 6.109375q4.3125 0 8.6875 -1.5q4.390625 -1.5 7.03125 -3.765625q1.5625 -1.203125 3.234375 -1.203125q1.328125 0 2.640625 0.953125q1.5625 1.4375 1.5625 3.25q0 1.546875 -1.3125 2.75q-3.96875 3.359375 -10.09375 5.578125q-6.109375 2.21875 -11.75 2.21875q-9.609375 0 -17.171875 -4.25q-7.546875 -4.265625 -11.8125 -11.875q-4.265625 -7.625 -4.265625 -17.234375q0 -9.71875 4.015625 -17.328125q4.03125 -7.625 11.171875 -11.875q7.140625 -4.265625 16.265625 -4.265625zm0 8.28125q-9.125 0 -15.125 5.640625q-6.0 5.625 -7.328125 14.875l43.921875 0q-0.953125 -9.25 -6.71875 -14.875q-5.75 -5.640625 -14.75 -5.640625zm114.83618 -31.09375q0 -2.03125 1.375 -3.34375q1.390625 -1.328125 3.296875 -1.328125q2.046875 0 3.359375 1.328125q1.328125 1.3125 1.328125 3.34375l0 84.359375q0 1.921875 -1.328125 3.3125q-1.3125 1.375 -3.359375 1.375q-1.90625 0 -3.296875 -1.375q-1.375 -1.390625 -1.375 -3.3125l0 -38.515625l-58.5625 0l0 38.515625q0 1.921875 -1.328125 3.3125q-1.3125 1.375 -3.34375 1.375q-1.921875 0 -3.3125 -1.375q-1.375 -1.390625 -1.375 -3.3125l0 -84.359375q0 -2.03125 1.375 -3.34375q1.390625 -1.328125 3.3125 -1.328125q2.03125 0 3.34375 1.328125q1.328125 1.3125 1.328125 3.34375l0 37.453125l58.5625 0l0 -37.453125zm34.076782 28.09375q0 -2.046875 1.3125 -3.359375q1.328125 -1.328125 3.375 -1.328125q2.03125 0 3.28125 1.328125q1.265625 1.3125 1.265625 3.359375l0 56.265625q0 2.046875 -1.265625 3.375q-1.25 1.3125 -3.28125 1.3125q-2.046875 0 -3.375 -1.3125q-1.3125 -1.328125 -1.3125 -3.375l0 -56.265625zm4.671875 -30.25q2.640625 0 4.5625 1.8125q1.921875 1.796875 1.921875 4.671875q0 2.765625 -1.921875 4.6875q-1.921875 1.90625 -4.671875 1.90625q-2.765625 0 -4.625 -1.90625q-1.859375 -1.921875 -1.859375 -4.6875q0 -2.875 1.921875 -4.671875q1.921875 -1.8125 4.671875 -1.8125zm57.008118 81.96875q1.921875 0 3.125 1.328125q1.203125 1.3125 1.203125 3.34375q0 1.921875 -1.453125 3.25q-1.4375 1.3125 -3.59375 1.3125l-2.515625 0q-6.359375 0 -11.40625 -3.0625q-5.03125 -3.0625 -7.859375 -8.28125q-2.8125 -5.21875 -2.8125 -11.8125l0 -32.046875l-7.8125 0q-1.90625 0 -3.046875 -1.140625q-1.140625 -1.140625 -1.140625 -2.8125q0 -1.796875 1.140625 -2.9375q1.140625 -1.140625 3.046875 -1.140625l7.8125 0l0 -18.609375q0 -2.03125 1.25 -3.34375q1.265625 -1.328125 3.296875 -1.328125q2.046875 0 3.359375 1.328125q1.328125 1.3125 1.328125 3.34375l0 18.609375l13.5625 0q1.921875 0 3.0625 1.140625q1.140625 1.140625 1.140625 2.9375q0 1.671875 -1.140625 2.8125q-1.140625 1.140625 -3.0625 1.140625l-13.5625 0l0 32.046875q0 6.109375 3.59375 10.015625q3.609375 3.90625 9.25 3.90625l3.234375 0zm47.39624 -57.0q15.0 0 24.359375 11.515625q0.96875 1.078125 0.96875 2.515625q0 1.921875 -2.046875 3.359375q-1.078125 0.71875 -2.28125 0.71875q-1.796875 0 -3.46875 -1.796875q-3.609375 -3.953125 -7.9375 -5.9375q-4.3125 -1.984375 -9.59375 -1.984375q-6.59375 0 -11.765625 3.1875q-5.15625 3.171875 -7.984375 8.9375q-2.8125 5.765625 -2.8125 12.953125q0 7.078125 3.0 12.78125q3.0 5.703125 8.40625 8.953125q5.40625 3.234375 12.359375 3.234375q9.609375 0 15.484375 -5.15625q1.5625 -1.328125 3.234375 -1.328125q1.4375 0 2.640625 0.96875q1.6875 1.4375 1.6875 3.234375q0 1.5625 -1.203125 2.640625q-8.640625 8.03125 -21.84375 8.03125q-9.359375 0 -16.796875 -4.375q-7.4375 -4.375 -11.703125 -12.0q-4.265625 -7.625 -4.265625 -16.984375q0 -9.59375 4.078125 -17.203125q4.09375 -7.625 11.28125 -11.9375q7.203125 -4.328125 16.203125 -4.328125zm74.5199 -0.125q8.53125 0 15.296875 3.609375q6.78125 3.59375 10.625 10.5q3.84375 6.890625 3.84375 16.484375l0 31.203125q0 1.921875 -1.328125 3.25q-1.3125 1.3125 -3.234375 1.3125q-2.03125 0 -3.359375 -1.3125q-1.3125 -1.328125 -1.3125 -3.25l0 -31.203125q0 -10.671875 -5.953125 -16.25q-5.9375 -5.578125 -15.53125 -5.578125q-5.875 0 -10.625 2.28125q-4.734375 2.265625 -7.5 6.296875q-2.75 4.015625 -2.75 8.9375l0 35.515625q0 2.046875 -1.265625 3.3125q-1.265625 1.25 -3.296875 1.25q-2.046875 0 -3.375 -1.25q-1.3125 -1.265625 -1.3125 -3.3125l0 -84.484375q0 -2.03125 1.3125 -3.34375q1.328125 -1.328125 3.375 -1.328125q2.03125 0 3.296875 1.328125q1.265625 1.3125 1.265625 3.34375l0 32.171875q3.953125 -4.4375 9.59375 -6.953125q5.640625 -2.53125 12.234375 -2.53125zm78.130554 0.125q8.875 0 15.703125 4.140625q6.84375 4.140625 10.625 11.46875q3.78125 7.3125 3.78125 16.671875q0 1.90625 -1.203125 3.046875q-1.1875 1.140625 -3.109375 1.140625l-48.484375 0q0.96875 9.84375 7.6875 15.96875q6.71875 6.109375 16.796875 6.109375q4.3125 0 8.6875 -1.5q4.390625 -1.5 7.03125 -3.765625q1.5625 -1.203125 3.234375 -1.203125q1.328125 0 2.640625 0.953125q1.5625 1.4375 1.5625 3.25q0 1.546875 -1.3125 2.75q-3.96875 3.359375 -10.09375 5.578125q-6.109375 2.21875 -11.75 2.21875q-9.609375 0 -17.171875 -4.25q-7.546875 -4.265625 -11.8125 -11.875q-4.265625 -7.625 -4.265625 -17.234375q0 -9.71875 4.015625 -17.328125q4.03125 -7.625 11.171875 -11.875q7.140625 -4.265625 16.265625 -4.265625zm0 8.28125q-9.125 0 -15.125 5.640625q-6.0 5.625 -7.328125 14.875l43.921875 0q-0.953125 -9.25 -6.71875 -14.875q-5.75 -5.640625 -14.75 -5.640625zm75.35181 -8.40625q5.046875 0 7.984375 1.328125q2.9375 1.3125 2.9375 3.71875q0 0.71875 -0.125 1.078125q-0.46875 1.671875 -1.5 2.28125q-1.015625 0.59375 -2.8125 0.59375q-1.078125 0 -3.71875 -0.234375q-0.96875 -0.125 -2.890625 -0.125q-9.0 0 -14.703125 4.796875q-5.6875 4.796875 -5.6875 12.484375l0 35.875q0 2.15625 -1.203125 3.359375q-1.203125 1.203125 -3.359375 1.203125q-2.15625 0 -3.359375 -1.203125q-1.203125 -1.203125 -1.203125 -3.359375l0 -56.515625q0 -2.15625 1.203125 -3.359375q1.203125 -1.203125 3.359375 -1.203125q2.15625 0 3.359375 1.203125q1.203125 1.203125 1.203125 3.359375l0 5.28125q3.484375 -5.046875 8.875 -7.796875q5.40625 -2.765625 11.640625 -2.765625z" fill-rule="nonzero"/></g></svg>