<svg version="1.1" viewBox="0.0 0.0 961.3464566929134 320.8320209973753" fill="none" stroke="none" stroke-linecap="square" stroke-miterlimit="10" xmlns:xlink="http://www.w3.org/1999/xlink" xmlns="http://www.w3.org/2000/svg"><clipPath id="p.0"><path d="m0 0l961.34644 0l0 320.83203l-961.34644 0l0 -320.83203z" clip-rule="nonzero"/></clipPath><g clip-path="url(#p.0)"><path fill="#000000" fill-opacity="0.0" d="m0 0l961.34644 0l0 320.83203l-961.34644 0z" fill-rule="evenodd"/><path fill="#000000" fill-opacity="0.0" d="m0 0l961.3543 0l0 320.8189l-961.3543 0z" fill-rule="evenodd"/><path fill="#6d9eeb" d="m50.356934 119.5125q0 2.046875 -1.328125 3.375q-1.3125 1.3125 -3.34375 1.3125q-2.046875 0 -3.375 -1.3125q-1.3125 -1.328125 -1.3125 -3.375l0 -84.359375q0 -2.03125 1.3125 -3.34375q1.328125 -1.328125 3.375 -1.328125l24.0 0q8.75 0 15.640625 3.90625q6.90625 3.890625 10.75 10.796875q3.84375 6.890625 3.84375 15.78125q0 8.75 -3.84375 15.59375q-3.84375 6.84375 -10.75 10.6875q-6.890625 3.828125 -15.640625 3.828125l-19.328125 0l0 28.4375zm19.328125 -37.4375q6.109375 0 10.90625 -2.6875q4.8125 -2.703125 7.5 -7.5q2.703125 -4.8125 2.703125 -10.921875q0 -6.25 -2.703125 -11.109375q-2.6875 -4.859375 -7.5 -7.609375q-4.796875 -2.765625 -10.90625 -2.765625l-19.328125 0l0 42.59375l19.328125 0zm45.471176 -18.828125q0 -2.046875 1.3125 -3.359375q1.328125 -1.328125 3.375 -1.328125q2.03125 0 3.28125 1.328125q1.265625 1.3125 1.265625 3.359375l0 56.265625q0 2.046875 -1.265625 3.375q-1.25 1.3125 -3.28125 1.3125q-2.046875 0 -3.375 -1.3125q-1.3125 -1.328125 -1.3125 -3.375l0 -56.265625zm4.671875 -30.25q2.640625 0 4.5625 1.8125q1.921875 1.796875 1.921875 4.671875q0 2.765625 -1.921875 4.6875q-1.921875 1.90625 -4.671875 1.90625q-2.765625 0 -4.625 -1.90625q-1.859375 -1.921875 -1.859375 -4.6875q0 -2.875 1.921875 -4.671875q1.921875 -1.8125 4.671875 -1.8125zm56.164337 24.96875q15.0 0 24.359375 11.515625q0.96875 1.078125 0.96875 2.515625q0 1.921875 -2.046875 3.359375q-1.078125 0.71875 -2.28125 0.71875q-1.796875 0 -3.46875 -1.796875q-3.609375 -3.953125 -7.9375 -5.9375q-4.3125 -1.984375 -9.59375 -1.984375q-6.59375 0 -11.765625 3.1875q-5.15625 3.171875 -7.984375 8.9375q-2.8125 5.765625 -2.8125 12.953125q0 7.078125 3.0 12.78125q3.0 5.703125 8.40625 8.953125q5.40625 3.234375 12.359375 3.234375q9.609375 0 15.484375 -5.15625q1.5625 -1.328125 3.234375 -1.328125q1.4375 0 2.640625 0.96875q1.6875 1.4375 1.6875 3.234375q0 1.5625 -1.203125 2.640625q-8.640625 8.03125 -21.84375 8.03125q-9.359375 0 -16.796875 -4.375q-7.4375 -4.375 -11.703125 -12.0q-4.265625 -7.625 -4.265625 -16.984375q0 -9.59375 4.078125 -17.203125q4.09375 -7.625 11.28125 -11.9375q7.203125 -4.328125 16.203125 -4.328125zm72.36368 57.0q1.921875 0 3.125 1.328125q1.203125 1.3125 1.203125 3.34375q0 1.921875 -1.453125 3.25q-1.4375 1.3125 -3.59375 1.3125l-2.515625 0q-6.359375 0 -11.40625 -3.0625q-5.03125 -3.0625 -7.859375 -8.28125q-2.8125 -5.21875 -2.8125 -11.8125l0 -32.046875l-7.8125 0q-1.90625 0 -3.046875 -1.140625q-1.140625 -1.140625 -1.140625 -2.8125q0 -1.796875 1.140625 -2.9375q1.140625 -1.140625 3.046875 -1.140625l7.8125 0l0 -18.609375q0 -2.03125 1.25 -3.34375q1.265625 -1.328125 3.296875 -1.328125q2.046875 0 3.359375 1.328125q1.328125 1.3125 1.328125 3.34375l0 18.609375l13.5625 0q1.921875 0 3.0625 1.140625q1.140625 1.140625 1.140625 2.9375q0 1.671875 -1.140625 2.8125q-1.140625 1.140625 -3.0625 1.140625l-13.5625 0l0 32.046875q0 6.109375 3.59375 10.015625q3.609375 3.90625 9.25 3.90625l3.234375 0zm74.28682 -56.40625q2.03125 0 3.34375 1.265625q1.328125 1.25 1.328125 3.296875l0 56.390625q0 2.046875 -1.328125 3.375q-1.3125 1.3125 -3.34375 1.3125q-2.046875 0 -3.3125 -1.3125q-1.25 -1.328125 -1.25 -3.375l0 -4.078125q-3.96875 4.453125 -9.609375 6.96875q-5.640625 2.515625 -12.234375 2.515625q-8.515625 0 -15.296875 -3.59375q-6.78125 -3.609375 -10.625 -10.5q-3.84375 -6.90625 -3.84375 -16.5l0 -31.203125q0 -1.921875 1.3125 -3.234375q1.328125 -1.328125 3.25 -1.328125q2.046875 0 3.359375 1.328125q1.328125 1.3125 1.328125 3.234375l0 31.203125q0 10.671875 5.9375 16.25q5.9375 5.578125 15.53125 5.578125q5.890625 0 10.625 -2.265625q4.75 -2.28125 7.5 -6.296875q2.765625 -4.03125 2.765625 -8.953125l0 -35.515625q0 -2.046875 1.25 -3.296875q1.265625 -1.265625 3.3125 -1.265625zm55.911804 -0.71875q5.046875 0 7.984375 1.328125q2.9375 1.3125 2.9375 3.71875q0 0.71875 -0.125 1.078125q-0.46875 1.671875 -1.5 2.28125q-1.015625 0.59375 -2.8125 0.59375q-1.078125 0 -3.71875 -0.234375q-0.96875 -0.125 -2.890625 -0.125q-9.0 0 -14.703125 4.796875q-5.6875 4.796875 -5.6875 12.484375l0 35.875q0 2.15625 -1.203125 3.359375q-1.203125 1.203125 -3.359375 1.203125q-2.15625 0 -3.359375 -1.203125q-1.203125 -1.203125 -1.203125 -3.359375l0 -56.515625q0 -2.15625 1.203125 -3.359375q1.203125 -1.203125 3.359375 -1.203125q2.15625 0 3.359375 1.203125q1.203125 1.203125 1.203125 3.359375l0 5.28125q3.484375 -5.046875 8.875 -7.796875q5.40625 -2.765625 11.640625 -2.765625zm53.288086 0.125q8.875 0 15.703125 4.140625q6.84375 4.140625 10.625 11.46875q3.78125 7.3125 3.78125 16.671875q0 1.90625 -1.203125 3.046875q-1.1875 1.140625 -3.109375 1.140625l-48.484375 0q0.96875 9.84375 7.6875 15.96875q6.71875 6.109375 16.796875 6.109375q4.3125 0 8.6875 -1.5q4.390625 -1.5 7.03125 -3.765625q1.5625 -1.203125 3.234375 -1.203125q1.328125 0 2.640625 0.953125q1.5625 1.4375 1.5625 3.25q0 1.546875 -1.3125 2.75q-3.96875 3.359375 -10.09375 5.578125q-6.109375 2.21875 -11.75 2.21875q-9.609375 0 -17.171875 -4.25q-7.546875 -4.265625 -11.8125 -11.875q-4.265625 -7.625 -4.265625 -17.234375q0 -9.71875 4.015625 -17.328125q4.03125 -7.625 11.171875 -11.875q7.140625 -4.265625 16.265625 -4.265625zm0 8.28125q-9.125 0 -15.125 5.640625q-6.0 5.625 -7.328125 14.875l43.921875 0q-0.953125 -9.25 -6.71875 -14.875q-5.75 -5.640625 -14.75 -5.640625zm114.83618 -31.09375q0 -2.03125 1.375 -3.34375q1.390625 -1.328125 3.296875 -1.328125q2.046875 0 3.359375 1.328125q1.328125 1.3125 1.328125 3.34375l0 84.359375q0 1.921875 -1.328125 3.3125q-1.3125 1.375 -3.359375 1.375q-1.90625 0 -3.296875 -1.375q-1.375 -1.390625 -1.375 -3.3125l0 -38.515625l-58.5625 0l0 38.515625q0 1.921875 -1.328125 3.3125q-1.3125 1.375 -3.34375 1.375q-1.921875 0 -3.3125 -1.375q-1.375 -1.390625 -1.375 -3.3125l0 -84.359375q0 -2.03125 1.375 -3.34375q1.390625 -1.328125 3.3125 -1.328125q2.03125 0 3.34375 1.328125q1.328125 1.3125 1.328125 3.34375l0 37.453125l58.5625 0l0 -37.453125zm34.076782 28.09375q0 -2.046875 1.3125 -3.359375q1.328125 -1.328125 3.375 -1.328125q2.03125 0 3.28125 1.328125q1.265625 1.3125 1.265625 3.359375l0 56.265625q0 2.046875 -1.265625 3.375q-1.25 1.3125 -3.28125 1.3125q-2.046875 0 -3.375 -1.3125q-1.3125 -1.328125 -1.3125 -3.375l0 -56.265625zm4.671875 -30.25q2.640625 0 4.5625 1.8125q1.921875 1.796875 1.921875 4.671875q0 2.765625 -1.921875 4.6875q-1.921875 1.90625 -4.671875 1.90625q-2.765625 0 -4.625 -1.90625q-1.859375 -1.921875 -1.859375 -4.6875q0 -2.875 1.921875 -4.671875q1.921875 -1.8125 4.671875 -1.8125zm57.008118 81.96875q1.921875 0 3.125 1.328125q1.203125 1.3125 1.203125 3.34375q0 1.921875 -1.453125 3.25q-1.4375 1.3125 -3.59375 1.3125l-2.515625 0q-6.359375 0 -11.40625 -3.0625q-5.03125 -3.0625 -7.859375 -8.28125q-2.8125 -5.21875 -2.8125 -11.8125l0 -32.046875l-7.8125 0q-1.90625 0 -3.046875 -1.140625q-1.140625 -1.140625 -1.140625 -2.8125q0 -1.796875 1.140625 -2.9375q1.140625 -1.140625 3.046875 -1.140625l7.8125 0l0 -18.609375q0 -2.03125 1.25 -3.34375q1.265625 -1.328125 3.296875 -1.328125q2.046875 0 3.359375 1.328125q1.328125 1.3125 1.328125 3.34375l0 18.609375l13.5625 0q1.921875 0 3.0625 1.140625q1.140625 1.140625 1.140625 2.9375q0 1.671875 -1.140625 2.8125q-1.140625 1.140625 -3.0625 1.140625l-13.5625 0l0 32.046875q0 6.109375 3.59375 10.015625q3.609375 3.90625 9.25 3.90625l3.234375 0zm47.39624 -57.0q15.0 0 24.359375 11.515625q0.96875 1.078125 0.96875 2.515625q0 1.921875 -2.046875 3.359375q-1.078125 0.71875 -2.28125 0.71875q-1.796875 0 -3.46875 -1.796875q-3.609375 -3.953125 -7.9375 -5.9375q-4.3125 -1.984375 -9.59375 -1.984375q-6.59375 0 -11.765625 3.1875q-5.15625 3.171875 -7.984375 8.9375q-2.8125 5.765625 -2.8125 12.953125q0 7.078125 3.0 12.78125q3.0 5.703125 8.40625 8.953125q5.40625 3.234375 12.359375 3.234375q9.609375 0 15.484375 -5.15625q1.5625 -1.328125 3.234375 -1.328125q1.4375 0 2.640625 0.96875q1.6875 1.4375 1.6875 3.234375q0 1.5625 -1.203125 2.640625q-8.640625 8.03125 -21.84375 8.03125q-9.359375 0 -16.796875 -4.375q-7.4375 -4.375 -11.703125 -12.0q-4.265625 -7.625 -4.265625 -16.984375q0 -9.59375 4.078125 -17.203125q4.09375 -7.625 11.28125 -11.9375q7.203125 -4.328125 16.203125 -4.328125zm74.5199 -0.125q8.53125 0 15.296875 3.609375q6.78125 3.59375 10.625 10.5q3.84375 6.890625 3.84375 16.484375l0 31.203125q0 1.921875 -1.328125 3.25q-1.3125 1.3125 -3.234375 1.3125q-2.03125 0 -3.359375 -1.3125q-1.3125 -1.328125 -1.3125 -3.25l0 -31.203125q0 -10.671875 -5.953125 -16.25q-5.9375 -5.578125 -15.53125 -5.578125q-5.875 0 -10.625 2.28125q-4.734375 2.265625 -7.5 6.296875q-2.75 4.015625 -2.75 8.9375l0 35.515625q0 2.046875 -1.265625 3.3125q-1.265625 1.25 -3.296875 1.25q-2.046875 0 -3.375 -1.25q-1.3125 -1.265625 -1.3125 -3.3125l0 -84.484375q0 -2.03125 1.3125 -3.34375q1.328125 -1.328125 3.375 -1.328125q2.03125 0 3.296875 1.328125q1.265625 1.3125 1.265625 3.34375l0 32.171875q3.953125 -4.4375 9.59375 -6.953125q5.640625 -2.53125 12.234375 -2.53125zm78.130554 0.125q8.875 0 15.703125 4.140625q6.84375 4.140625 10.625 11.46875q3.78125 7.3125 3.78125 16.671875q0 1.90625 -1.203125 3.046875q-1.1875 1.140625 -3.109375 1.140625l-48.484375 0q0.96875 9.84375 7.6875 15.96875q6.71875 6.109375 16.796875 6.109375q4.3125 0 8.6875 -1.5q4.390625 -1.5 7.03125 -3.765625q1.5625 -1.203125 3.234375 -1.203125q1.328125 0 2.640625 0.953125q1.5625 1.4375 1.5625 3.25q0 1.546875 -1.3125 2.75q-3.96875 3.359375 -10.09375 5.578125q-6.109375 2.21875 -11.75 2.21875q-9.609375 0 -17.171875 -4.25q-7.546875 -4.265625 -11.8125 -11.875q-4.265625 -7.625 -4.265625 -17.234375q0 -9.71875 4.015625 -17.328125q4.03125 -7.625 11.171875 -11.875q7.140625 -4.265625 16.265625 -4.265625zm0 8.28125q-9.125 0 -15.125 5.640625q-6.0 5.625 -7.328125 14.875l43.921875 0q-0.953125 -9.25 -6.71875 -14.875q-5.75 -5.640625 -14.75 -5.640625zm75.35181 -8.40625q5.046875 0 7.984375 1.328125q2.9375 1.3125 2.9375 3.71875q0 0.71875 -0.125 1.078125q-0.46875 1.671875 -1.5 2.28125q-1.015625 0.59375 -2.8125 0.59375q-1.078125 0 -3.71875 -0.234375q-0.96875 -0.125 -2.890625 -0.125q-9.0 0 -14.703125 4.796875q-5.6875 4.796875 -5.6875 12.484375l0 35.875q0 2.15625 -1.203125 3.359375q-1.203125 1.203125 -3.359375 1.203125q-2.15625 0 -3.359375 -1.203125q-1.203125 -1.203125 -1.203125 -3.359375l0 -56.515625q0 -2.15625 1.203125 -3.359375q1.203125 -1.203125 3.359375 -1.203125q2.15625 0 3.359375 1.203125q1.203125 1.203125 1.203125 3.359375l0 5.28125q3.484375 -5.046875 8.875 -7.796875q5.40625 -2.765625 11.640625 -2.765625z" fill-rule="nonzero"/><path fill="#000000" d="m40.91461 204.5125q-7.265625 0 -11.3125 -4.15625q-4.046875 -4.15625 -4.046875 -12.09375l0 -21.390625l3.9375 0l0 21.21875q0 6.515625 2.9375 9.71875q2.9375 3.1875 8.484375 3.1875q5.59375 0 8.515625 -3.1875q2.9375 -3.203125 2.9375 -9.71875l0 -21.21875l3.84375 0l0 21.390625q0 7.9375 -4.03125 12.09375q-4.015625 4.15625 -11.265625 4.15625zm40.688934 -28.578125q5.265625 0 8.390625 3.078125q3.125 3.0625 3.125 8.921875l0 16.265625l-3.796875 0l0 -15.890625q0 -4.375 -2.1875 -6.65625q-2.171875 -2.296875 -6.234375 -2.296875q-4.53125 0 -7.171875 2.6875q-2.640625 2.6875 -2.640625 7.4375l0 14.71875l-3.78125 0l0 -28.046875l3.625 0l0 5.171875q1.546875 -2.5625 4.28125 -3.96875q2.75 -1.421875 6.390625 -1.421875zm21.806213 -11.296875l3.78125 0l0 39.5625l-3.78125 0l0 -39.5625zm14.345245 11.515625l3.78125 0l0 28.046875l-3.78125 0l0 -28.046875zm1.921875 -6.140625q-1.171875 0 -1.96875 -0.796875q-0.796875 -0.796875 -0.796875 -1.921875q0 -1.0625 0.796875 -1.859375q0.796875 -0.796875 1.96875 -0.796875q1.171875 0 1.96875 0.78125q0.8125 0.765625 0.8125 1.828125q0 1.171875 -0.8125 1.96875q-0.796875 0.796875 -1.96875 0.796875zm47.407745 5.921875q5.28125 0 8.28125 3.046875q3.015625 3.03125 3.015625 8.953125l0 16.265625l-3.78125 0l0 -15.890625q0 -4.375 -2.109375 -6.65625q-2.109375 -2.296875 -5.9375 -2.296875q-4.375 0 -6.890625 2.6875q-2.5 2.6875 -2.5 7.4375l0 14.71875l-3.78125 0l0 -15.890625q0 -4.375 -2.109375 -6.65625q-2.109375 -2.296875 -6.0 -2.296875q-4.328125 0 -6.859375 2.6875q-2.53125 2.6875 -2.53125 7.4375l0 14.71875l-3.78125 0l0 -28.046875l3.625 0l0 5.109375q1.5 -2.546875 4.15625 -3.9375q2.671875 -1.390625 6.140625 -1.390625q3.515625 0 6.09375 1.5q2.59375 1.484375 3.875 4.421875q1.546875 -2.78125 4.453125 -4.34375q2.90625 -1.578125 6.640625 -1.578125zm21.59668 0.21875l3.78125 0l0 28.046875l-3.78125 0l0 -28.046875zm1.921875 -6.140625q-1.171875 0 -1.96875 -0.796875q-0.796875 -0.796875 -0.796875 -1.921875q0 -1.0625 0.796875 -1.859375q0.796875 -0.796875 1.96875 -0.796875q1.171875 0 1.96875 0.78125q0.8125 0.765625 0.8125 1.828125q0 1.171875 -0.8125 1.96875q-0.796875 0.796875 -1.96875 0.796875zm27.188995 32.484375q-1.0625 0.953125 -2.640625 1.46875q-1.5625 0.5 -3.28125 0.5q-3.9375 0 -6.078125 -2.125q-2.125 -2.140625 -2.125 -6.03125l0 -16.953125l-5.015625 0l0 -3.203125l5.015625 0l0 -6.140625l3.78125 0l0 6.140625l8.53125 0l0 3.203125l-8.53125 0l0 16.734375q0 2.515625 1.25 3.828125q1.265625 1.296875 3.609375 1.296875q1.171875 0 2.265625 -0.375q1.09375 -0.375 1.890625 -1.0625l1.328125 2.71875zm31.307434 -11.15625l-23.46875 0q0.328125 4.375 3.359375 7.078125q3.046875 2.6875 7.6875 2.6875q2.609375 0 4.796875 -0.921875q2.1875 -0.9375 3.78125 -2.75l2.140625 2.453125q-1.875 2.234375 -4.671875 3.40625q-2.796875 1.171875 -6.15625 1.171875q-4.3125 0 -7.65625 -1.828125q-3.328125 -1.84375 -5.203125 -5.09375q-1.859375 -3.265625 -1.859375 -7.375q0 -4.09375 1.78125 -7.34375q1.796875 -3.265625 4.90625 -5.078125q3.125 -1.8125 7.015625 -1.8125q3.890625 0 6.984375 1.8125q3.09375 1.8125 4.84375 5.046875q1.765625 3.21875 1.765625 7.375l-0.046875 1.171875zm-13.546875 -12.15625q-4.046875 0 -6.796875 2.59375q-2.75 2.578125 -3.125 6.75l19.890625 0q-0.375 -4.171875 -3.125 -6.75q-2.734375 -2.59375 -6.84375 -2.59375zm46.928894 -14.546875l0 39.5625l-3.625 0l0 -5.546875q-1.703125 2.828125 -4.515625 4.328125q-2.796875 1.484375 -6.3125 1.484375q-3.9375 0 -7.140625 -1.8125q-3.203125 -1.8125 -5.0156403 -5.0625q-1.8125 -3.25 -1.8125 -7.421875q0 -4.15625 1.8125 -7.40625q1.8125153 -3.25 5.0156403 -5.03125q3.203125 -1.796875 7.140625 -1.796875q3.421875 0 6.15625 1.421875q2.75 1.40625 4.515625 4.125l0 -16.84375l3.78125 0zm-14.125 36.46875q2.921875 0 5.296875 -1.359375q2.375 -1.359375 3.734375 -3.859375q1.359375 -2.515625 1.359375 -5.71875q0 -3.1875 -1.359375 -5.6875q-1.359375 -2.515625 -3.734375 -3.875q-2.375 -1.359375 -5.296875 -1.359375q-2.984375 0 -5.359375 1.359375q-2.375 1.359375 -3.734375 3.875q-1.359375 2.5 -1.359375 5.6875q0 3.203125 1.359375 5.71875q1.359375 2.5 3.734375 3.859375q2.375 1.359375 5.359375 1.359375zm38.659546 -24.953125l3.78125 0l0 28.046875l-3.78125 0l0 -28.046875zm1.921875 -6.140625q-1.171875 0 -1.96875 -0.796875q-0.796875 -0.796875 -0.796875 -1.921875q0 -1.0625 0.796875 -1.859375q0.796875 -0.796875 1.96875 -0.796875q1.171875 0 1.96875 0.78125q0.8125 0.765625 0.8125 1.828125q0 1.171875 -0.8125 1.96875q-0.796875 0.796875 -1.96875 0.796875zm47.407745 5.921875q5.28125 0 8.28125 3.046875q3.015625 3.03125 3.015625 8.953125l0 16.265625l-3.78125 0l0 -15.890625q0 -4.375 -2.109375 -6.65625q-2.109375 -2.296875 -5.9375 -2.296875q-4.375 0 -6.890625 2.6875q-2.5 2.6875 -2.5 7.4375l0 14.71875l-3.78125 0l0 -15.890625q0 -4.375 -2.109375 -6.65625q-2.109375 -2.296875 -6.0 -2.296875q-4.328125 0 -6.859375 2.6875q-2.53125 2.6875 -2.53125 7.4375l0 14.71875l-3.78125 0l0 -28.046875l3.625 0l0 5.109375q1.5 -2.546875 4.15625 -3.9375q2.671875 -1.390625 6.140625 -1.390625q3.515625 0 6.09375 1.5q2.59375 1.484375 3.875 4.421875q1.546875 -2.78125 4.453125 -4.34375q2.90625 -1.578125 6.640625 -1.578125zm31.40918 0q5.484375 0 8.421875 2.75q2.9375 2.75 2.9375 8.125l0 17.390625l-3.625 0l0 -4.375q-1.28125 2.1875 -3.765625 3.421875q-2.484375 1.21875 -5.890625 1.21875q-4.6875 0 -7.46875 -2.234375q-2.765625 -2.25 -2.765625 -5.921875q0 -3.578125 2.578125 -5.765625q2.59375 -2.1875 8.25 -2.1875l8.90625 0l0 -1.703125q0 -3.625 -2.03125 -5.515625q-2.03125 -1.890625 -5.921875 -1.890625q-2.671875 0 -5.125 0.875q-2.453125 0.875 -4.203125 2.421875l-1.71875 -2.828125q2.140625 -1.8125 5.125 -2.796875q2.984375 -0.984375 6.296875 -0.984375zm-1.328125 25.546875q3.1875 0 5.484375 -1.46875q2.296875 -1.46875 3.421875 -4.234375l0 -4.59375l-8.8125 0q-7.1875 0 -7.1875 5.015625q0 2.453125 1.859375 3.875q1.875 1.40625 5.234375 1.40625zm48.947906 -25.328125l0 24.640625q0 7.140625 -3.5 10.578125q-3.484375 3.4375 -10.53125 3.4375q-3.890625 0 -7.390625 -1.15625q-3.484375 -1.140625 -5.671875 -3.15625l1.921875 -2.890625q2.03125 1.8125 4.9375 2.828125q2.90625 1.015625 6.109375 1.015625q5.328125 0 7.828125 -2.484375q2.515625 -2.46875 2.515625 -7.703125l0 -3.5625q-1.765625 2.65625 -4.625 4.046875q-2.84375 1.390625 -6.3125 1.390625q-3.953125 0 -7.1875 -1.734375q-3.21875 -1.734375 -5.0625 -4.84375q-1.828125 -3.125 -1.828125 -7.078125q0 -3.953125 1.828125 -7.03125q1.84375 -3.09375 5.046875 -4.796875q3.203125 -1.71875 7.203125 -1.71875q3.578125 0 6.453125 1.4375q2.875 1.4375 4.640625 4.15625l0 -5.375l3.625 0zm-14.34375 23.625q3.03125 0 5.484375 -1.3125q2.453125 -1.3125 3.8125 -3.65625q1.375 -2.34375 1.375 -5.328125q0 -2.984375 -1.375 -5.296875q-1.359375 -2.328125 -3.78125 -3.625q-2.421875 -1.3125 -5.515625 -1.3125q-3.046875 0 -5.46875 1.28125q-2.421875 1.28125 -3.78125 3.625q-1.359375 2.34375 -1.359375 5.328125q0 2.984375 1.359375 5.328125q1.359375 2.34375 3.78125 3.65625q2.421875 1.3125 5.46875 1.3125zm49.379913 -8.4375l-23.46875 0q0.328125 4.375 3.359375 7.078125q3.046875 2.6875 7.6875 2.6875q2.609375 0 4.796875 -0.921875q2.1875 -0.9375 3.78125 -2.75l2.140625 2.453125q-1.875 2.234375 -4.671875 3.40625q-2.796875 1.171875 -6.15625 1.171875q-4.3125 0 -7.65625 -1.828125q-3.328125 -1.84375 -5.203125 -5.09375q-1.859375 -3.265625 -1.859375 -7.375q0 -4.09375 1.78125 -7.34375q1.796875 -3.265625 4.90625 -5.078125q3.125 -1.8125 7.015625 -1.8125q3.890625 0 6.984375 1.8125q3.09375 1.8125 4.84375 5.046875q1.765625 3.21875 1.765625 7.375l-0.046875 1.171875zm-13.546875 -12.15625q-4.046875 0 -6.796875 2.59375q-2.75 2.578125 -3.125 6.75l19.890625 0q-0.375 -4.171875 -3.125 -6.75q-2.734375 -2.59375 -6.84375 -2.59375zm49.603912 -3.25q5.265625 0 8.390625 3.078125q3.125 3.0625 3.125 8.921875l0 16.265625l-3.796875 0l0 -15.890625q0 -4.375 -2.1875 -6.65625q-2.171875 -2.296875 -6.234375 -2.296875q-4.53125 0 -7.171875 2.6875q-2.640625 2.6875 -2.640625 7.4375l0 14.71875l-3.78125 0l0 -39.5625l3.78125 0l0 16.421875q1.546875 -2.453125 4.265625 -3.78125q2.71875 -1.34375 6.25 -1.34375zm33.274963 28.53125q-4.0625 0 -7.3125 -1.828125q-3.25 -1.84375 -5.125 -5.09375q-1.859375 -3.265625 -1.859375 -7.375q0 -4.09375 1.859375 -7.34375q1.875 -3.265625 5.125 -5.078125q3.25 -1.8125 7.3125 -1.8125q4.046875 0 7.296875 1.8125q3.25 1.8125 5.09375 5.078125q1.84375 3.25 1.84375 7.34375q0 4.109375 -1.84375 7.375q-1.84375 3.25 -5.09375 5.09375q-3.25 1.828125 -7.296875 1.828125zm0 -3.359375q2.984375 0 5.359375 -1.359375q2.375 -1.359375 3.703125 -3.859375q1.328125 -2.515625 1.328125 -5.71875q0 -3.1875 -1.328125 -5.6875q-1.328125 -2.515625 -3.703125 -3.875q-2.375 -1.359375 -5.359375 -1.359375q-2.984375 0 -5.359375 1.359375q-2.375 1.359375 -3.734375 3.875q-1.359375 2.5 -1.359375 5.6875q0 3.203125 1.359375 5.71875q1.359375 2.5 3.734375 3.859375q2.375 1.359375 5.359375 1.359375zm29.483582 3.359375q-3.40625 0 -6.53125 -0.984375q-3.125 -0.984375 -4.875 -2.484375l1.703125 -2.984375q1.765625 1.390625 4.421875 2.265625q2.671875 0.875 5.546875 0.875q3.84375 0 5.671875 -1.1875q1.84375 -1.203125 1.84375 -3.390625q0 -1.546875 -1.015625 -2.421875q-1.0 -0.890625 -2.546875 -1.34375q-1.546875 -0.453125 -4.109375 -0.875q-3.40625 -0.640625 -5.5 -1.296875q-2.078125 -0.671875 -3.546875 -2.265625q-1.453125 -1.609375 -1.453125 -4.4375q0 -3.515625 2.921875 -5.75q2.9375 -2.25 8.15625 -2.25q2.734375 0 5.453125 0.71875q2.71875 0.71875 4.46875 1.890625l-1.640625 3.046875q-3.46875 -2.40625 -8.28125 -2.40625q-3.625 0 -5.46875 1.28125q-1.828125 1.28125 -1.828125 3.359375q0 1.609375 1.03125 2.5625q1.046875 0.953125 2.59375 1.421875q1.546875 0.453125 4.265625 0.921875q3.359375 0.640625 5.375 1.28125q2.03125 0.640625 3.46875 2.1875q1.453125 1.546875 1.453125 4.265625q0 3.6875 -3.078125 5.84375q-3.0625 2.15625 -8.5 2.15625zm33.327393 -1.96875q-1.0625 0.953125 -2.640625 1.46875q-1.5625 0.5 -3.28125 0.5q-3.9375 0 -6.078125 -2.125q-2.125 -2.140625 -2.125 -6.03125l0 -16.953125l-5.015625 0l0 -3.203125l5.015625 0l0 -6.140625l3.78125 0l0 6.140625l8.53125 0l0 3.203125l-8.53125 0l0 16.734375q0 2.515625 1.25 3.828125q1.265625 1.296875 3.609375 1.296875q1.171875 0 2.265625 -0.375q1.09375 -0.375 1.890625 -1.0625l1.328125 2.71875zm6.885559 -26.34375l3.78125 0l0 28.046875l-3.78125 0l0 -28.046875zm1.921875 -6.140625q-1.171875 0 -1.96875 -0.796875q-0.796875 -0.796875 -0.796875 -1.921875q0 -1.0625 0.796875 -1.859375q0.796875 -0.796875 1.96875 -0.796875q1.171875 0 1.96875 0.78125q0.8125 0.765625 0.8125 1.828125q0 1.171875 -0.8125 1.96875q-0.796875 0.796875 -1.96875 0.796875zm26.720276 5.921875q5.265625 0 8.390625 3.078125q3.125 3.0625 3.125 8.921875l0 16.265625l-3.796875 0l0 -15.890625q0 -4.375 -2.1875 -6.65625q-2.171875 -2.296875 -6.234375 -2.296875q-4.53125 0 -7.171875 2.6875q-2.640625 2.6875 -2.640625 7.4375l0 14.71875l-3.78125 0l0 -28.046875l3.625 0l0 5.171875q1.546875 -2.5625 4.28125 -3.96875q2.75 -1.421875 6.390625 -1.421875zm47.774963 0.21875l0 24.640625q0 7.140625 -3.5 10.578125q-3.484375 3.4375 -10.53125 3.4375q-3.890625 0 -7.390625 -1.15625q-3.484375 -1.140625 -5.671875 -3.15625l1.921875 -2.890625q2.03125 1.8125 4.9375 2.828125q2.90625 1.015625 6.109375 1.015625q5.328125 0 7.828125 -2.484375q2.515625 -2.46875 2.515625 -7.703125l0 -3.5625q-1.765625 2.65625 -4.625 4.046875q-2.84375 1.390625 -6.3125 1.390625q-3.953125 0 -7.1875 -1.734375q-3.21875 -1.734375 -5.0625 -4.84375q-1.828125 -3.125 -1.828125 -7.078125q0 -3.953125 1.828125 -7.03125q1.84375 -3.09375 5.046875 -4.796875q3.203125 -1.71875 7.203125 -1.71875q3.578125 0 6.453125 1.4375q2.875 1.4375 4.640625 4.15625l0 -5.375l3.625 0zm-14.34375 23.625q3.03125 0 5.484375 -1.3125q2.453125 -1.3125 3.8125 -3.65625q1.375 -2.34375 1.375 -5.328125q0 -2.984375 -1.375 -5.296875q-1.359375 -2.328125 -3.78125 -3.625q-2.421875 -1.3125 -5.515625 -1.3125q-3.046875 0 -5.46875 1.28125q-2.421875 1.28125 -3.78125 3.625q-1.359375 2.34375 -1.359375 5.328125q0 2.984375 1.359375 5.328125q1.359375 2.34375 3.78125 3.65625q2.421875 1.3125 5.46875 1.3125zm36.851868 -11.6875l13.96875 0l0 3.3125l-13.96875 0l0 -3.3125zm45.702637 -20.53125q-2.453125 0 -3.71875 1.34375q-1.25 1.328125 -1.25 3.9375l0 3.3125l8.640625 0l0 3.203125l-8.53125 0l0 24.84375l-3.78125 0l0 -24.84375l-5.015625 0l0 -3.203125l5.015625 0l0 -3.46875q0 -3.84375 2.203125 -6.078125q2.21875 -2.25 6.28125 -2.25q1.59375 0 3.078125 0.46875q1.5 0.453125 2.515625 1.296875l-1.28125 2.828125q-1.65625 -1.390625 -4.15625 -1.390625zm20.265686 36.90625q-4.0625 0 -7.3125 -1.828125q-3.25 -1.84375 -5.125 -5.09375q-1.859375 -3.265625 -1.859375 -7.375q0 -4.09375 1.859375 -7.34375q1.875 -3.265625 5.125 -5.078125q3.25 -1.8125 7.3125 -1.8125q4.046875 0 7.296875 1.8125q3.25 1.8125 5.09375 5.078125q1.84375 3.25 1.84375 7.34375q0 4.109375 -1.84375 7.375q-1.84375 3.25 -5.09375 5.09375q-3.25 1.828125 -7.296875 1.828125zm0 -3.359375q2.984375 0 5.359375 -1.359375q2.375 -1.359375 3.703125 -3.859375q1.328125 -2.515625 1.328125 -5.71875q0 -3.1875 -1.328125 -5.6875q-1.328125 -2.515625 -3.703125 -3.875q-2.375 -1.359375 -5.359375 -1.359375q-2.984375 0 -5.359375 1.359375q-2.375 1.359375 -3.734375 3.875q-1.359375 2.5 -1.359375 5.6875q0 3.203125 1.359375 5.71875q1.359375 2.5 3.734375 3.859375q2.375 1.359375 5.359375 1.359375zm25.592957 -19.46875q1.328125 -2.828125 3.96875 -4.265625q2.640625 -1.4375 6.53125 -1.4375l0 3.6875l-0.90625 -0.0625q-4.421875 0 -6.9375 2.71875q-2.5 2.71875 -2.5 7.625l0 14.296875l-3.78125 0l0 -28.046875l3.625 0l0 5.484375zm41.012695 -14.078125q-2.453125 0 -3.71875 1.34375q-1.25 1.328125 -1.25 3.9375l0 3.3125l8.640625 0l0 3.203125l-8.53125 0l0 24.84375l-3.78125 0l0 -24.84375l-5.015625 0l0 -3.203125l5.015625 0l0 -3.46875q0 -3.84375 2.203125 -6.078125q2.21875 -2.25 6.28125 -2.25q1.59375 0 3.078125 0.46875q1.5 0.453125 2.515625 1.296875l-1.28125 2.828125q-1.65625 -1.390625 -4.15625 -1.390625zm12.421936 14.078125q1.328125 -2.828125 3.96875 -4.265625q2.640625 -1.4375 6.53125 -1.4375l0 3.6875l-0.90625 -0.0625q-4.421875 0 -6.9375 2.71875q-2.5 2.71875 -2.5 7.625l0 14.296875l-3.78125 0l0 -28.046875l3.625 0l0 5.484375zm42.181396 9.703125l-23.46875 0q0.328125 4.375 3.359375 7.078125q3.046875 2.6875 7.6875 2.6875q2.609375 0 4.796875 -0.921875q2.1875 -0.9375 3.78125 -2.75l2.140625 2.453125q-1.875 2.234375 -4.671875 3.40625q-2.796875 1.171875 -6.15625 1.171875q-4.3125 0 -7.65625 -1.828125q-3.328125 -1.84375 -5.203125 -5.09375q-1.859375 -3.265625 -1.859375 -7.375q0 -4.09375 1.78125 -7.34375q1.796875 -3.265625 4.90625 -5.078125q3.125 -1.8125 7.015625 -1.8125q3.890625 0 6.984375 1.8125q3.09375 1.8125 4.84375 5.046875q1.765625 3.21875 1.765625 7.375l-0.046875 1.171875zm-13.546875 -12.15625q-4.046875 0 -6.796875 2.59375q-2.75 2.578125 -3.125 6.75l19.890625 0q-0.375 -4.171875 -3.125 -6.75q-2.734375 -2.59375 -6.84375 -2.59375zm45.75702 12.15625l-23.46875 0q0.328125 4.375 3.359375 7.078125q3.046875 2.6875 7.6875 2.6875q2.609375 0 4.796875 -0.921875q2.1875 -0.9375 3.78125 -2.75l2.140625 2.453125q-1.875 2.234375 -4.671875 3.40625q-2.796875 1.171875 -6.15625 1.171875q-4.3125 0 -7.65625 -1.828125q-3.328125 -1.84375 -5.203125 -5.09375q-1.859375 -3.265625 -1.859375 -7.375q0 -4.09375 1.78125 -7.34375q1.796875 -3.265625 4.90625 -5.078125q3.125 -1.8125 7.015625 -1.8125q3.890625 0 6.984375 1.8125q3.09375 1.8125 4.84375 5.046875q1.765625 3.21875 1.765625 7.375l-0.046875 1.171875zm-13.546875 -12.15625q-4.046875 0 -6.796875 2.59375q-2.75 2.578125 -3.125 6.75l19.890625 0q-0.375 -4.171875 -3.125 -6.75q-2.734375 -2.59375 -6.84375 -2.59375zm21.710144 25.28125q-1.171875 0 -2.0 -0.84375q-0.828125 -0.859375 -0.828125 -2.09375q0 -1.21875 0.828125 -2.046875q0.828125 -0.828125 2.0 -0.828125q1.171875 0 2.015625 0.828125q0.859375 0.828125 0.859375 2.046875q0 1.234375 -0.859375 2.09375q-0.84375 0.84375 -2.015625 0.84375z" fill-rule="nonzero"/></g></svg>